<?xml version="1.0" encoding="utf-8"?>
<!-- Generator: Adobe Illustrator 26.3.0, SVG Export Plug-In . SVG Version: 6.00 Build 0)  -->
<svg version="1.1" id="Capa_1" xmlns="http://www.w3.org/2000/svg" xmlns:xlink="http://www.w3.org/1999/xlink" x="0px" y="0px"
	 viewBox="0 0 2500 2317" style="enable-background:new 0 0 2500 2317;" xml:space="preserve">
<path d="M58.4,1.6c-1.6,0.6-11.3,1.9-21.3,3.1C25.2,6,18.3,8.5,17.1,11.6c-1.9,4.7,2.5,27.9,10,54.2c2.2,7.8,4.7,17.5,5.6,21.9
	c3.4,16.9,11.9,51.7,32,130c11.6,44.8,21.9,86.5,23.2,92.4c1.6,6,4.4,17.2,6.3,25.1c2.2,7.8,6.3,22.6,8.8,32.9
	c9.1,35.4,13.2,50.1,16.9,64.2c2.2,7.8,5,19.1,6.3,25.1c1.3,6,4.4,18.8,6.9,28.2c2.5,9.4,10,37,16.3,61.1
	c6.3,24.1,12.8,48.9,14.1,54.8c1.3,6,5.6,22.2,9.4,36c3.8,13.8,8.1,30.1,9.4,36s4.1,17.2,6,25.1c2.2,7.8,6,21.9,8.1,31.3
	c5.6,22.9,12.5,50.4,18.5,73.6c2.5,10.3,5.6,22.9,6.6,27.9c2.5,11.9,19.7,48.9,26,55.8c4.4,5.3,14.4,5.6,128.5,5.6
	c119.7,0,124.1-0.3,134.1-6.6c6.6-3.8,10.7-9.1,10.7-12.8c0-3.4,2.2-12.8,4.7-21c2.5-7.8,6.6-23.5,9.4-34.8
	c2.8-11.3,6.6-25.4,8.5-31.3s4.7-16,5.6-21.9c1.3-6,5.6-22.2,9.4-36s8.1-30.1,9.4-36c1.3-6,5.6-22.2,9.4-36s8.1-30.1,9.4-36
	c1.3-6,5.6-22.2,9.4-36c3.8-13.8,8.1-30.1,9.4-36c1.3-6,5.6-22.2,9.4-36c3.8-13.8,8.1-30.1,9.4-36c1.3-6,5.6-22.2,9.4-36
	s8.1-30.1,9.4-36c1.3-6,5.6-22.2,9.4-36c3.8-13.8,8.1-30.1,9.4-36c1.3-6,5.6-22.2,9.4-36s8.1-30.1,9.4-36
	c10.3-48.6,25.7-85.5,38.9-94.3c5.6-3.8,132.8-4.4,805.2-5c619.7-0.6,799.3-1.6,803-4.4c10.3-8.8,12.5-20.4,14.7-76.8l1.9-56.7
	l-7.5-8.1c-4.4-4.7-11.3-9.7-15.7-11.6c-4.7-1.6-347.2-2.8-878.2-3.1C597.4,0,572,0,561.3,5.6c-14.4,7.8-15,10.3-45.1,131.3
	c-2.5,10-6.9,27.3-9.7,38.5c-2.8,11.3-7.2,28.5-9.7,38.2c-11,44.5-20.7,83-27.9,110.6c-8.1,31.3-14.1,55.1-18.5,72.7
	c-9.7,39.8-14.1,56.4-17.9,69.9c-1.9,7.8-4.7,19.1-6,25.1c-4.1,18.5-25.4,101.8-32,124.4c-3.8,12.5-14.1,26-20.1,26
	c-5.6,0-9.4-9.4-17.2-42.3c-3.4-13.8-8.1-32.9-10.7-42.3s-6.6-27.9-9.4-40.7c-2.8-12.8-7.2-31.3-9.4-40.7s-6.6-28.5-9.4-42.3
	c-3.1-13.8-7.2-33.5-9.7-43.9c-2.2-10.3-6.3-29.5-9.1-42.3c-26-121.6-43.9-195.5-65.5-271c-18.5-65.2-18.5-64.9-30.1-70.2
	c-8.5-3.8-25.4-5-76.8-5.6C91,0.6,60.3,0.6,58.4,1.6L58.4,1.6z M2402.4,167.3c-5,2.2-13.5,8.5-19.1,14.1
	c-17.2,16.9-18.2,52.6-1.9,70.2c10.7,11.6,28.8,21,41,21c14.4,0,33.2-11,43.9-25.7c15.7-21.6,12.5-52-7.5-69.2
	C2442.5,163.9,2419.9,159.8,2402.4,167.3z M2447.8,183.3c9.7,7.2,18.5,24.4,18.5,35.4c0,8.5-10.3,28.8-14.7,28.8
	c-1.6,0-6.6,3.4-11.6,7.8c-11.6,10-17.9,9.7-35.1-0.3c-19.1-11.3-23.2-18.2-23.2-38.9c0-15.7,0.9-18.5,10.3-27.3
	c5.3-5.3,12.8-10.3,16.3-11.3C2419.6,174.5,2440.3,177.7,2447.8,183.3L2447.8,183.3z"/>
<path d="M2399.3,197.7c-3.1,16-2.2,42,1.9,46.1c5,5,15-0.9,15-8.8c0-9.4,11.3-8.1,13.8,1.6c1.6,6,4.1,7.8,10,7.8
	c7.5,0,8.1-0.9,6.3-10.3c-2.5-12.8-2.5-14.4,0-25.1c3.4-14.1-5.3-21-26.9-21C2401.8,188,2401.1,188.3,2399.3,197.7z M2428.7,207.1
	c0,3.8-2.2,6-6.3,6c-6.9,0-9.1-11-2.2-13.5C2425.9,197.7,2428.7,200.2,2428.7,207.1z M2059,242.8c-70.5,9.4-131.9,36.7-162.3,72.4
	c-47,55.1-54.8,139.4-19.1,207.7c19.1,36.3,68.9,78.6,104.6,88.4c5.3,1.3,19.4,5.3,31.3,9.1c12.5,3.8,38.9,7.8,61.1,9.4
	c40.7,2.8,76.4,9.7,90.9,17.2c14.7,7.8,27.3,25.1,31.6,43.6c3.4,15.4,3.1,18.8-1.9,30.1c-6,13.2-19.7,26-39.2,36.3
	c-9.1,4.7-17.9,6-48.6,5.6c-43.9,0-57-3.8-123.4-34.8c-24.4-11.3-44.5-19.1-55.8-21.9c-8.8-2.2-25.4,15.4-50.8,52.6
	c-25.7,38.2-36.3,61.1-32,70.5c4.7,10.7,77.7,54.5,90.9,54.5c1.6,0,6.9,1.9,11.9,4.4c19.7,10,57.3,23.5,80.8,28.8
	c37.6,8.5,125.3,7.8,159.8-1.3c59.8-15.7,98.7-37,136.3-75.5c29.5-30.1,43.2-59.2,49.8-108.1c5.3-37.6-3.4-93.7-19.4-121.9
	c-5-9.1-21-30.7-27.3-37c-7.5-7.5-34.8-25.7-47-31.3c-23.5-11-32.9-14.1-92.4-29.5c-45.4-11.9-58-15.4-74.6-20.7
	c-24.1-8.1-51.7-22.2-62.4-32c-7.2-6.9-8.8-11-8.8-23.2c0-21.9,16-43.6,40.7-55.1c11-5,20.4-6.6,42.3-6.6
	c33.5,0,50.4,5.3,107.5,32.9c24.4,11.9,40.7,18.2,44.5,16.9c9.1-2.8,43.2-38.9,54.8-58.3c11-17.9,16.3-37.9,12.8-50.8
	c-1.9-8.5-23.2-23.2-56.1-38.2c-41.7-19.1-73-28.2-121.3-34.8C2129.8,237.5,2099.7,237.5,2059,242.8L2059,242.8z M824.8,272.9
	c-28.8,2.8-36.3,6.9-39.5,22.9c-1.3,5.3-6.3,22.2-11.3,37.9c-5,15.4-11.3,36-14.1,45.4c-2.8,9.4-6.9,22.9-9.1,29.8
	c-2.2,6.9-6.3,21-9.4,31.3c-3.1,10.3-7.2,24.4-9.4,31.3c-2.2,6.9-6.6,21-9.4,31.3c-3.1,10.3-7.2,24.4-9.4,31.3
	c-2.2,6.9-6.3,21.6-9.4,32.9c-3.1,11.3-7.2,26-9.4,32.9c-2.2,6.9-6.6,21.6-9.4,32.9c-2.8,11.3-7.2,26-9.4,32.9
	c-2.2,6.9-6.3,21.6-9.4,32.9c-3.1,11.3-7.2,26.6-9.4,34.5c-2.2,7.8-6.3,22.9-9.1,33.5c-2.8,11-7.2,28.5-10,39.2
	c-2.8,11-7.2,26.3-9.7,34.5c-2.5,7.8-4.7,20.7-5,27.9l-0.6,13.5l23.5,4.4c30.7,5.6,107.2,6,123.4,0.3c11.6-4.1,12.5-5.6,18.5-26.3
	c20.4-71.4,18.8-68.3,33.5-78c20.7-14.1,45.7-17.9,103.4-15.7c26.6,0.9,53.9,3.1,60.2,4.7c17.5,4.4,28.8,17.9,36.7,44.2
	c3.8,12.5,9.7,32.3,13.2,43.9c5.3,17.5,7.8,21.6,14.1,23.2c11.3,2.8,136,3.1,145.7,0.6c4.7-1.3,9.1-4.4,10-7.2
	c1.3-2.5-3.8-26.6-11-53.9c-6.9-27.3-13.8-55.1-15-62c-2.5-12.2-8.8-37.9-32.6-132.5c-2.8-10.7-6.9-27.6-9.4-37.6
	c-2.5-9.7-6.9-26.6-9.4-37.6c-2.8-10.7-6.9-27.6-9.4-37.6c-18.8-74.9-21.6-85.8-42.9-152.6c-22.9-71.4-27.3-82.1-33.8-84.6
	C1024.7,270.7,876.8,267.9,824.8,272.9L824.8,272.9z M909.7,478.4c4.1,5,6.9,11.9,18.8,41.7c7.8,20.1,13.2,37.6,16.9,56.4
	c3.4,18.5,3.4,21-1.6,26c-6.3,6.6-36.3,11.6-54.2,9.1c-6.3-0.6-14.1-4.1-16.9-7.2c-4.7-5.3-4.7-7.2,0-26c2.8-11.3,5-24.4,5-29.1
	c0.3-18.2,18.8-76.1,24.8-76.1C903.8,473.1,907.2,475.6,909.7,478.4L909.7,478.4z M1661.1,272.6c-11.3,1.3-24.1,4.1-28.8,6.3
	c-8.1,3.8-8.8,5.6-8.8,23.2c0,10.7-1.6,48.6-3.4,84.9c-1.6,36-3.4,81.8-4.4,101.2c-0.6,19.4-2.2,36.7-3.1,38.2
	c-4.1,6.6-16.6,3.1-21.3-5.6c-2.2-4.7-11.6-21.9-21-38.2c-9.1-16.3-20.7-37.3-25.7-46.7c-5.3-9.1-13.5-23.8-18.5-32.3
	c-5-8.5-9.1-15.7-9.1-16.3c0-0.6-10.7-19.7-23.5-42.6c-12.8-22.9-23.5-42.6-23.5-43.9c0-0.9-5.3-7.8-11.9-15l-12.2-13.2h-65.5
	c-62.7,0-107.5,4.4-114,11.6c-7.2,7.2-10.3,90.5-11.6,323.7c-1.6,243.4-1.3,246.3,5,261l6.6,15l68.9-0.9c65.5-0.9,69.2-1.3,75.5-7.5
	c6.6-6.6,6.6-10,9.1-129.4c2.5-126,3.1-131.9,15.4-131.9c5.6,0,45.1,64.2,74.3,120.6c63.6,123.4,74.3,141.9,85.2,144.8
	c4.7,1.3,47.9,2.5,96.5,2.5c65.8,0,89.3-0.9,92.7-3.8c3.4-3.1,5-14.7,6.9-50.4c2.5-58.9,1.9-488.8-0.6-522.3l-2.2-25.1l-15.7-3.4
	C1751.3,272.3,1686.1,269.8,1661.1,272.6L1661.1,272.6z M1244.4,1223.5c-4.4,0.6-30.4,2.8-58,4.7c-71.1,5.3-147.6,16.3-214.6,31.6
	c-16.3,3.4-35.4,7.8-42.3,9.4c-6.9,1.6-22.2,5.6-34.5,9.1c-11.9,3.4-28.8,8.5-37.6,11c-37.3,10.3-90.5,29.1-147.3,52.3
	c-36,14.7-105.9,48.9-197.4,96.5c-112.5,58.3-204.6,102.5-236.6,112.8c-4.4,1.6-15.7,5.6-25.1,9.4c-53,20.7-159.5,47-189.6,47
	c-12.2,0-16,1.6-26.3,11.6c-9.4,9.4-13.8,18.2-21,40.1c-5,15.4-9.1,35.4-9.1,43.9c0,16.3,1.6,19.4,104,191.1c2.2,3.4,5,8.5,6.3,11
	c1.3,2.5,5.6,9.7,9.7,15.7c4.1,6,8.8,13.8,10.3,17.2c1.6,3.4,6,11.3,9.4,17.2c55.5,92.7,68.3,112.8,77.1,120.9l10.7,9.7l104,1.9
	c105.9,1.9,128.1,4.1,150.1,15c20.1,10.3,22.9,19.1,22.9,76.5c0,58-0.3,57,31.3,80.5c57.7,42.9,134.1,57.3,227.2,43.6
	c42-6.3,76.8-20.4,101.2-41.7c14.7-12.5,27.3-32,27.3-42c0-13.2,10.7-47.3,16.9-54.2c10.7-11.9,18.2-13.2,53-8.1
	c70.8,9.7,123.4,14.4,202.7,16.9c102.5,3.8,80.2,3.8,183.3,0c108.7-3.8,186.7-11.3,282-26.6c49.2-8.1,66.7-11.6,173.3-35.7
	c17.5-4.1,30.4-2.2,38.9,5.3c2.8,2.5,10,14.7,16.3,26.9c23.5,47.9,48.3,61.7,109.3,61.7c86.5,0,176.1-36.3,241.9-97.8
	c26-24.1,35.7-38.5,47.6-70.5c6.9-18.8,8.1-26.9,8.8-67.7c0.9-46.4,0.9-46.4,9.7-55.8c5-5.3,18.8-16,30.4-23.8
	c32.9-21.9,116.6-106.5,137.2-138.8c18.2-28.2,22.6-38.2,29.5-65.8c17.5-69.6-15.7-113.7-108.1-142.9c-97.1-31-158.9-53-239.7-85.8
	c-43.2-17.5-144.4-60.5-166.1-70.5c-11.9-5.6-36-16.3-53.3-23.5c-17.2-7.2-32.6-14.1-34.5-15.4c-1.6-1.3-15.7-7.8-31.3-14.1
	c-15.4-6.6-29.5-13.2-31.3-14.4c-1.6-1.3-6-3.1-9.4-4.1c-3.4-0.9-14.1-4.7-23.5-8.5c-39.5-15-71.4-24.8-139.4-42
	c-53.3-13.2-142.9-27.9-214.6-35.1C1382.8,1225.1,1261,1221.3,1244.4,1223.5L1244.4,1223.5z M1558,1284.6c5,2.8,6,6.9,6,26.9
	c0,27.6-0.6,28.2-39.8,31c-13.5,0.9-44.2,3.8-68.3,6.3c-45.4,4.7-105.3,10.7-191.1,18.8c-136.6,13.2-194.9,19.1-254.7,25.7
	c-9.1,0.9-19.1,4.1-22.2,6.9c-6,5.3-8.5,18.2-30.1,157c-2.8,18.2-7.2,44.2-9.7,58c-2.5,13.8-4.4,28.8-4.4,33.5
	c0,12.8-9.7,17.2-46.4,21c-50.4,5.3-53,5-58.9-6.6c-2.8-5.3-6.3-13.5-7.5-17.9c-1.6-4.4-5.6-16-9.4-25.4c-3.8-9.4-8.5-22.9-11-29.8
	c-5-15.4-17.9-50.4-26.6-73.6c-3.8-9.4-7.8-20.7-9.4-25.1c-1.6-4.4-7.8-21.9-14.1-39.2c-22.9-63.9-27.6-79-25.7-83.7
	c1.9-5.3,51.4-14.1,59.8-11c11,4.4,21.3,30.4,64.9,165.1c12.5,39.5,18.8,53.3,23.2,53.3c2.5,0,5.6-12.2,9.1-33.8
	c2.8-18.5,7.2-46.4,9.7-61.7c2.2-15.7,6.6-44.5,9.4-64.2c2.8-19.7,6.6-43.9,8.8-53.3l3.8-17.2l36-5.3c19.7-2.8,43.2-5.3,51.7-5.3
	c8.8,0,33.2-2.2,54.8-4.7c21.6-2.8,61.7-6.9,89.3-9.7c50.1-4.7,99.3-9.7,188-18.5c26-2.8,68.9-7.2,95.6-9.7
	c26.6-2.8,59.8-6,73.6-7.5C1548.3,1281.2,1551.1,1281.2,1558,1284.6L1558,1284.6z M1542.3,1377.4c25.1,7.2,31,11.9,31,24.8
	c0,7.5-2.8,13.5-10.3,21.6l-10.3,10.7l-24.4-7.8c-13.8-4.4-27.3-6.9-31.6-6c-11.9,3.1-26.9,17.5-26,25.1
	c1.3,8.5,24.8,20.4,40.4,20.7c16.9,0,54.2,10.7,65.5,18.8c10.7,7.5,20.7,27.6,23.8,47c4.4,27.9-17.2,60.5-51.7,77.1
	c-15.4,7.5-21.3,8.5-48.9,8.8c-24.8,0-35.4-1.3-51.7-7.2c-25.1-8.8-34.5-14.4-34.5-21.6c0-7.5,18.2-38.2,22.9-38.5
	c10-0.9,23.5,1.3,31,5.3c5,2.5,17.9,4.4,30.4,4.4c19.4,0,22.9-0.9,30.1-8.1c11-11,9.4-22.2-4.4-31.6c-9.1-6.3-14.7-7.2-38.5-7.2
	c-30.7,0-45.4-4.4-59.8-18.2c-22.2-21-28.2-58.3-13.2-82.1C1432.7,1380.5,1494.7,1363.6,1542.3,1377.4L1542.3,1377.4z
	 M1379.7,1444.4c8.5,67.1,15.7,147.9,14.7,159.8c-1.3,10-2.2,11-13.8,13.2c-6.9,1.3-22.6,2.2-34.8,2.2c-19.1,0.3-22.9-0.6-28.5-6.9
	c-6.9-7.8-26-36-26-38.5c0-3.1-28.5-38.9-31.3-38.9c-4.7,0-6,9.1-3.1,27.3c1.3,10,3.4,27.6,4.7,39.2c1.9,19.4,1.6,21.3-5.3,25.4
	c-4.1,2.5-16,5.6-26.6,6.6c-23.8,2.5-24.8,1.6-29.1-39.2c-1.6-16.3-5.3-48.6-7.8-72.1c-2.5-23.5-4.7-56.1-4.7-72.7v-30.1l16.3-5
	c8.8-2.5,23.5-4.7,32.6-4.7c18.8,0,17.5-1.3,55.8,54.2c12.2,17.9,22.6,29.8,24.4,28.5c2.5-1.6,2.8-15.4,1.6-43.6
	c-1.3-29.8-0.9-42.3,1.9-45.1c2.5-2.5,12.5-3.4,28.8-2.8l25.1,0.9L1379.7,1444.4z M1108.4,1428.1c3.4,2.5,24.8,50.4,31.3,71.1
	c2.2,6.9,6.3,18.2,8.8,25.1c15,41,36.3,103.1,36.3,106.5c0,10.3-48.6,15.4-57.7,6c-2.8-2.5-5-7.2-5-10.3s-3.8-9.7-8.1-14.4
	c-7.8-8.5-8.5-8.5-33.5-6.6c-23.2,1.9-26.6,3.1-34.2,11.6c-6,6.3-8.8,12.5-8.8,19.7c0,14.1-5,17.2-29.5,19.7
	c-25.1,2.2-30.4-0.9-28.2-17.2c3.4-26.6,11.3-71.8,25.1-142.6c13.2-67.4,11.6-65.2,40.7-68
	C1076.1,1425.6,1104.3,1425.3,1108.4,1428.1L1108.4,1428.1z M2298.4,1545c10.7,5,11.9,10.3,6.3,25.7c-2.5,7.2-6,17.2-7.5,22.6
	c-9.4,31.6-13.2,39.2-21,39.2c-12.5,0-29.1-8.5-29.1-15c0-8.1,14.1-54.2,20.1-66.1C2272.7,1540.6,2283.6,1538.4,2298.4,1545
	L2298.4,1545z M2358.2,1567.5l8.1,6.9l-6.6,21.9c-8.8,28.2-17.9,47.6-24.1,51.1c-4.4,2.8-19.4-0.9-28.5-6.9
	c-6.9-4.4-2.2-25.1,16.3-68.6c4.4-10,6.3-11.6,16-11.6C2346,1560.3,2353.2,1563.2,2358.2,1567.5L2358.2,1567.5z M2220,1570.4
	c5.3,8.8,11.3,45.4,11.3,70.5c0,27.3,9.1,73,15,75.2c2.5,1.3,12.2-1.9,21-6.9c9.1-4.7,18.8-7.8,21.3-6.9c6,2.2,11.6,21,11.6,38.9
	v13.5l-44.5,29.1c-60.2,39.2-67.1,42.6-73,36.7c-4.4-4.7-5.3-11.3-14.1-109.7c-1.9-21.6-5.3-59.5-7.5-84.6
	c-2.5-26.9-3.1-47.6-1.6-50.8s9.4-6.3,19.1-8.1C2207.2,1562.2,2215,1562.8,2220,1570.4L2220,1570.4z M2101.9,1608.9
	c1.9,15.4,4.4,43.6,5.3,62.7c1.9,32,9.7,99.9,13.2,117.2c1.6,7.5,6,7.8,30.1,1.9c7.5-1.9,8.5-1.3,11.6,9.7
	c1.9,6.9,3.4,18.2,3.4,25.4c0,13.2,0,13.2-25.7,28.5c-32.6,19.1-65.2,35.1-72.1,35.1c-7.5,0-11-7.8-12.8-29.8
	c-9.4-97.8-12.2-127.2-16.3-180.2c-2.5-33.5-4.7-67.7-4.7-75.5c0-21.3,6-24.4,42.3-23.8l21.9,0.6L2101.9,1608.9z M1959,1591.7
	c7.8,4.4,14.1,17.2,16.6,34.5c1.3,7.8,4.1,19.1,6.3,25.1c2.5,6,6.6,21.6,9.7,34.5c2.8,12.8,7.5,31.3,10,40.7
	c2.5,9.4,6.3,24.1,8.5,32.9c2.5,8.5,6.6,24.8,9.4,36c16.9,63.9,24.8,99.9,22.6,105c-2.2,5.6-39.2,23.5-48.6,23.5
	c-7.5,0-11.6-5-15.7-20.7c-1.9-6.9-6.3-15.4-9.7-18.5c-5.6-5-7.8-5.3-19.1-1.9c-7.2,2.2-16.3,7.2-20.4,11.3
	c-6.6,6.6-7.5,10.7-7.5,30.4c0,12.5-1.3,24.4-2.5,26c-4.4,6.3-45.1,23.5-55.1,23.5c-11.3,0-15.4-7.2-13.2-24.1
	c1.3-8.1,3.4-60.8,5-116.9c1.6-56.1,4.7-129.4,6.6-162.9c4.1-72.7,2.5-70.2,41-73.6c21-1.6,39.8-4.7,48.9-7.5
	C1952.5,1588.5,1955.6,1590.1,1959,1591.7L1959,1591.7z M1826.5,1687.2c1.3,80.2-4.7,281-8.5,295.1c-1.6,5.3-6,9.1-14.4,12.2
	c-29.5,10.7-50.8,16.9-58.6,16.9c-7.5,0-8.8-1.9-14.1-21.3c-8.5-28.5-13.8-49.8-16.6-64.9c-4.1-20.4-11.6-40.7-14.4-40.1
	c-1.6,0.6-3.1,8.1-3.4,17.2c-1.9,41.7-7.8,113.7-10.3,120c-1.9,5-7.8,7.8-25.4,11.9c-12.8,3.1-30.4,5.3-39.5,5.3h-16l-6.6-21.6
	c-3.8-11.9-6.6-23.5-6.6-25.7s-1.9-11-4.4-19.7s-6.9-24.8-9.4-35.7c-2.8-10.7-7.2-27.6-9.7-37.6c-4.7-18.8-33.8-136.6-39.5-160.4
	c-7.2-30.4-12.8-52.3-17.2-67.1c-6-20.1-5.6-29.1,1.3-32.6c2.8-1.6,19.7-3.8,37.3-5c30.7-1.9,32.3-1.6,36.7,5c2.8,3.8,5,11.6,5,17.2
	c0,5.6,2.2,21,5,34.5c2.5,13.5,6.9,35.7,9.4,49.5c2.8,13.8,6.9,34.8,9.4,47c2.8,11.9,5.3,25.4,6.3,29.5c0.9,5,2.5,6.6,4.7,4.4
	c3.8-3.8,7.8-55.1,11-133.5c2.5-68.9,0.3-65.2,40.7-67.4c24.4-1.3,26-0.9,30.4,6c2.5,4.1,6.9,18.2,10,31c2.8,12.8,6.6,29.8,8.5,37.6
	c3.8,15.7,6,26.3,13.2,57.7c2.5,11.9,7.2,24.4,10.7,27.6c5.6,6,6,5,7.8-46.4c1.3-28.8,2.2-66.7,2.2-84.3c0-40.7,1.3-42,42.3-41.4
	l21.9,0.6L1826.5,1687.2z M1453,1656.2c2.8,6.6,4.4,17.9,3.8,27.3l-0.9,15.7l-20.4,4.4c-11.3,2.5-26,5.3-32.6,6.6
	c-18.5,3.4-19.7,7.5-13.5,46.7c2.8,18.5,5.3,38.5,5.3,44.2c0,20.1,3.4,22.6,31.3,22.6c30.1,0,31.6,1.9,33.8,38.2
	c1.3,24.1,1.3,24.4-6.9,27.6c-4.7,1.6-12.5,3.1-17.2,3.1c-4.7,0-13.5,1.6-19.1,3.4l-10.3,3.8l2.5,25.4c1.3,14.1,3.1,36.3,4.4,49.5
	c2.5,32.3,5.3,34.5,41.4,32.6c14.7-0.9,28.2-0.3,30.4,0.9c5.6,3.4,13.2,24.1,13.2,36.3c0,8.8-1.6,11.6-7.5,14.1
	c-15.7,6-45.7,9.1-90.5,10c-52,0.9-52.3,0.6-52.3-21c0-6.9-2.2-28.8-4.7-48.6c-2.5-19.7-6.6-56.4-9.4-81.5
	c-8.1-76.8-13.5-125-18.5-167.6c-6.9-55.8-7.2-82.1-1.6-87.7c2.8-2.8,17.2-6,37.3-8.1c18.2-1.9,42-4.4,53.3-6
	C1445.5,1643.4,1447.7,1643.7,1453,1656.2L1453,1656.2z M1263.2,1668.4c4.4,5.3,5.3,12.5,23.5,200.5c2.5,27.6,6.9,70.5,9.4,95.6
	c9.7,95.6,9.7,97.1,6,100.6c-6.3,5-57.3,4.7-62-0.6c-3.8-4.1-11.6-59.2-16-110.3c-0.9-11.6-3.1-24.8-5-29.1
	c-2.8-8.1-3.8-8.5-23.5-6.6c-25.7,1.9-33.8,8.1-31,23.5c0.9,5.6,3.1,25.4,4.7,43.9c1.6,18.5,3.8,42.9,5,54.2
	c2.5,25.7,1.9,26-38.5,21c-26.6-3.1-30.1-4.4-32.6-11c-3.1-8.1-3.8-15.7-23.2-242.2c-2.8-32-6.3-70.5-7.8-86.2
	c-1.3-15.7-1.3-30.4,0.3-33.2c1.9-3.8,9.4-5.6,30.1-7.5c37.3-3.1,33.2-10.7,43.2,84.6c7.5,71.8,8.1,74.3,17.9,79.6
	c7.5,4.4,10.3,4.4,26.6,0.3l18.2-4.7l-0.9-36c-0.6-19.7-2.8-55.5-5.3-79c-2.5-23.5-4.7-44.5-4.7-46.1
	C1197.4,1667.8,1254.7,1658.1,1263.2,1668.4L1263.2,1668.4z M2450.6,1679.1c5.3,10.3,3.8,16-10.7,37.6
	c-12.8,18.8-54.8,63.3-78.6,82.7c-20.4,16.6-82.1,59.5-109.3,76.1c-35.1,21.3-37.6,22.9-53.6,32.6c-25.7,16-17.9,11.3-68.9,39.8
	c-46.7,25.7-145.7,73-153.5,73c-2.2,0-5,1.3-6.3,3.1c-0.9,1.6-6.3,4.4-11.9,6c-5.6,1.6-15.7,5.3-22.6,7.8
	c-6.9,2.5-20.4,7.5-29.8,11.3c-85.2,32.3-201.5,62.7-303.9,79.6c-123.4,20.4-189.9,24.8-344.7,22.9c-163.6-1.9-216.8-6.9-432.4-41.4
	c-142.9-22.9-213.7-30.7-336.8-37.6c-127.8-6.9-220.6-13.5-224-15.7c-4.4-2.8-3.8-12.5,1.3-25.1l4.7-11h68.3
	c38.5,0,88.7,1.9,115.3,4.7c55.5,5.6,122.2,12.5,178.6,18.8c22.6,2.5,62,6.6,87.7,9.4c26,2.5,65.5,6.9,87.7,9.4
	c22.6,2.5,62,6.9,87.7,9.4c26,2.8,65.5,6.9,87.7,9.4c198.6,21.9,373.2,21.9,548.3-0.3c80.5-10.3,171.1-27.9,238.1-47
	c34.2-9.4,81.8-23.8,88.7-26.6c4.1-1.6,16.3-5.6,26.6-9.4c10.7-3.4,30.1-10.7,42.9-15.7c12.8-5.3,28.5-11.6,34.5-13.8
	c63.6-23.5,146-64.2,212.4-104.6c16-9.7,31.3-19.1,34.5-20.7c7.8-4.7,67.7-45.1,93.1-63c39.5-27.6,126.6-94.9,133.2-102.8
	C2440.3,1671.2,2446.6,1671.9,2450.6,1679.1L2450.6,1679.1z M1046.3,1692.9c5,6,5.6,49.2,0.9,52.3c-2.2,1.3-13.2,3.1-24.8,4.1
	c-29.8,2.8-30.4,4.1-26.3,45.1c2.2,18.5,6,57.7,8.5,87.1c2.8,29.1,7.2,71.1,9.7,92.7c5.3,47.3,5.6,77.1,0.9,78.6
	c-7.8,2.5-53.3-5.6-56.1-10c-1.6-2.5-3.8-13.8-4.7-25.1c-0.9-11.3-3.8-35.1-6.3-53.3c-2.5-18.2-6.6-54.8-9.4-81.5
	c-7.5-71.4-13.8-113.4-17.9-118.4c-2.8-3.1-10-4.1-27.3-3.1l-23.8,0.9l-4.1-12.5c-11.3-33.8-3.4-48.6,25.7-48.6
	c8.8,0,25.1-1.6,36.3-3.4c18.8-3.1,71.1-7.5,102.1-8.8C1037.6,1689.1,1044.5,1690.7,1046.3,1692.9L1046.3,1692.9z M792.6,1717.9
	c1.9,2.2,4.4,13.5,5.6,24.8c1.9,19.7,1.6,21-6,26c-4.7,2.8-18.5,6.3-32,7.5c-27.6,2.5-30.7,5.3-28.5,24.8c3.1,24.4,6,26.6,29.5,24.8
	c29.1-2.2,31-0.6,33.5,28.2c2.2,22.6,1.9,24.4-4.7,29.8c-4.7,3.8-12.2,5.6-21.9,5.6c-25.1,0-26.3,2.8-23.2,53
	c1.3,23.5,2.5,48.3,2.8,55.1v12.5l-28.8-0.3c-16.6,0-30.7-1.6-33.2-3.8c-6.3-5.3-18.8-99.6-27.3-204.3c-1.9-23.2-4.1-47.3-5-53.3
	c-0.6-6-0.3-12.8,1.3-14.7c3.1-4.7,40.4-12.2,80.5-16C777.8,1713.2,788.8,1713.5,792.6,1717.9L792.6,1717.9z M263.4,1722.9
	c9.4,9.4,32.3,58.9,30.4,65.2c-2.2,6.9-18.8,16.6-27.9,16.6c-3.8,0-8.8-2.8-10.7-6.3c-11-16.9-29.1-54.8-29.1-59.8
	c0-6.9,18.2-20.4,29.1-21.3C256.5,1717,260.2,1719.8,263.4,1722.9L263.4,1722.9z M626.8,1732.3c6.6,4.1,11,47.3,5.6,53
	c-2.2,2.2-16.6,5.6-32,7.8c-26.3,3.8-28.5,4.7-31.3,12.5c-1.9,6.3-1.6,12.5,1.6,21.9l4.7,13.2l25.7,0.9c15.4,0.6,26.6,2.5,28.8,4.7
	c1.6,2.2,3.4,14.1,3.8,26.6c0.9,28.8-2.5,32.6-28.5,34.5c-26,1.9-29.1,6.9-25.1,38.5c1.6,12.8,3.1,28.5,3.1,34.8v11.9h-29.5
	c-42.3,0-41,1.6-47.3-64.2c-2.5-29.5-6.9-74.6-9.4-100.3c-6-59.2-6-78-0.3-82.7c2.2-1.9,29.5-6.3,60.2-9.4
	C626.5,1728.9,621.5,1729.2,626.8,1732.3L626.8,1732.3z M400,1746.4c55.1,14.4,83,58.9,83,131.9c0,37.3-7.8,69.2-21.3,85.5
	c-4.7,6-16.3,15.4-25.7,20.7c-15.4,8.5-19.4,9.4-43.9,9.4c-31-0.3-45.7-6.3-63.9-26.6c-29.8-32.9-42.3-107.5-26.6-158.2
	c5.3-17.5,9.7-24.1,24.1-38.9c11.3-11.3,23.2-19.7,32-22.9C375.5,1741.4,380.5,1741.1,400,1746.4L400,1746.4z M225.1,1773.4
	c7.5,12.8,14.4,28.2,15.4,34.2c1.9,9.4,0.9,11.9-6.9,18.2c-10.7,8.5-20.7,9.4-26.3,2.5c-4.7-5.6-19.1-31.6-28.5-51.7l-6.6-13.8
	l8.8-7.2c6.6-5.3,12.2-7.2,20.1-6.6C211,1749.9,212.9,1751.8,225.1,1773.4z M2203.7,1992.7c14.1,4.1,18.8,11.6,18.8,30.1
	c0.6,24.4-4.7,26.3-49.2,16.9c-47-9.7-101.5,6-149.1,42.6c-21,16-46.7,41-46.7,45.4c0,2.8-8.8,16.3-18.8,28.5
	c-7.8,9.4-24.1,7.2-36.3-5c-6-6-10.7-12.8-10.7-15.7c0-10.3,9.4-23.2,35.4-47.6c45.4-43.2,90.2-69.6,150.7-89
	C2125.4,1990.2,2182.4,1986.8,2203.7,1992.7L2203.7,1992.7z M2164,2067.9c14.7,13.8,8.8,30.7-20.1,57c-26,23.5-57.3,38.2-95.2,44.5
	c-15.7,2.8-38.9-7.2-41.4-17.9c-4.4-16.6,23.2-52,53.6-69.9C2101,2058.2,2147,2051.9,2164,2067.9L2164,2067.9z M695.4,2121.5
	c61.4,6.6,126.6,32.3,158.2,61.7c6.9,6.6,8.5,10.7,8.5,22.9c0,22.2-4.4,31-15,31c-5.3,0-11.6-2.8-15-6.6c-15.4-17.2-58-42-88-51.7
	c-8.1-2.5-31-6.6-50.4-9.1c-29.1-3.1-42-3.1-73.6,0c-21,2.5-42.6,6-48.3,7.8c-5.3,1.9-14.4,3.1-20.4,2.5
	c-9.1-0.9-10.3-2.2-11.3-11.6c-1.3-12.8,3.8-25.7,14.1-35.1C567,2121.2,638.1,2114.9,695.4,2121.5L695.4,2121.5z M744.6,2208.9
	c26,10.3,42.3,23.8,42.3,34.5c0,9.4-12.8,21-29.5,26.3c-22.2,7.2-91.8,6.9-113.1-0.3c-20.7-7.2-46.4-23.8-51.7-33.8
	c-7.8-14.7,6.3-31,30.7-36.3c6.6-1.6,30.7-1.9,53.9-1.6C716.1,2198.9,721.4,2199.8,744.6,2208.9L744.6,2208.9z"/>
<path d="M1059.5,1512.1c-1.9,4.7-3.1,15-2.5,22.9l0.9,14.4h12.5c15.7,0,17.5-6.9,7.2-28.2C1068.9,1503,1063.9,1500.5,1059.5,1512.1
	L1059.5,1512.1z M1929.6,1728.6c-3.1,5.3-5.3,56.7-3.1,69.9c2.5,12.5,3.8,14.1,11.6,15c5,0.6,10-0.6,11.3-2.5
	c2.8-4.7,1.3-23.8-4.7-48.6c-2.2-10.3-5-22.6-6.3-27.6C1936.8,1726.7,1932.4,1723.9,1929.6,1728.6z M368.3,1814.4
	c-5,5.3-6.3,12.2-6.9,38.5c-1.3,42,6.3,69.6,21,78c8.8,5.3,10.7,5.6,16.9,1.3c12.5-8.1,17.5-33.5,11.9-59.5
	c-1.6-7.2-4.7-21.6-6.6-31.6C398.7,1811.9,381.8,1799.7,368.3,1814.4L368.3,1814.4z M2349.8,1938.5c-9.1,2.2-6.3,7.2,3.8,7.2
	c6.3,0,9.4,1.6,9.4,4.7c0,2.5,2.2,4.7,4.7,4.7c6.3,0,6-3.8-0.9-9.7C2358.5,1938.5,2355.7,1937.3,2349.8,1938.5z M2313.1,1947.6
	c-3.4,4.7-5.6,9.7-4.4,11.6c0.9,1.6,3.8-0.6,6.3-5.3c2.8-5.3,6.9-8.1,11.9-8.1c4.1,0,8.5-1.6,9.4-3.1c1.3-1.9-1.9-3.1-7.5-3.1
	C2322.5,1939.4,2317.5,1942,2313.1,1947.6L2313.1,1947.6z M2327.5,1956.7c-3.1,7.5-2.5,24.1,0.6,29.5c2.2,3.4,3.4,2.8,6.3-2.5
	c4.7-8.1,8.8-8.5,11.3-0.3c3.4,11,6.6,6.9,7.2-9.4c0.6-16-1.3-18.8-8.5-11.9c-3.1,3.4-5,2.5-9.4-3.4
	C2330,1952,2329.1,1952,2327.5,1956.7L2327.5,1956.7z M2372.3,1972.3c0,6,1.6,11,3.1,11c1.9,0,3.1-5,3.1-11c0-6-1.3-11-3.1-11
	C2373.9,1961.4,2372.3,1966.4,2372.3,1972.3z"/>
<path d="M2306.5,1986.8c0,6.3,18.5,21,28.8,22.6c11.9,1.9,29.5-5.3,33.8-13.8c5-9.1-1.9-10-9.1-0.9c-9.4,12.2-28.8,11.6-41-1.6
	C2309,1982.7,2306.5,1981.4,2306.5,1986.8z"/>
</svg>
